<?xml version="1.0" standalone="no"?>
<!DOCTYPE svg PUBLIC "-//W3C//DTD SVG 20010904//EN"
 "http://www.w3.org/TR/2001/REC-SVG-20010904/DTD/svg10.dtd">
<svg version="1.0" xmlns="http://www.w3.org/2000/svg"
 width="234.000000pt" height="234.000000pt" viewBox="0 0 234.000000 234.000000"
 preserveAspectRatio="xMidYMid meet">
<metadata>
Created by potrace 1.14, written by Peter Selinger 2001-2017
</metadata>
<g transform="translate(0.000000,234.000000) scale(0.100000,-0.100000)"
fill="#000000" stroke="none">
<path d="M935 2042 c-47 -16 -93 -54 -120 -99 -12 -21 -29 -33 -49 -37 -49
-10 -78 -15 -131 -26 -27 -5 -65 -12 -84 -15 -19 -3 -37 -8 -41 -10 -3 -2 -20
-6 -36 -9 -38 -7 -84 -61 -85 -101 0 -16 -2 -37 -4 -45 -14 -73 -26 -812 -14
-857 6 -21 30 -47 74 -82 35 -28 67 -51 69 -51 11 0 126 -83 126 -91 0 -5 4
-8 8 -6 10 3 82 -45 82 -55 0 -5 4 -8 10 -8 9 0 18 -6 72 -52 12 -10 24 -18
27 -18 3 0 19 -11 34 -25 15 -14 27 -24 27 -21 0 16 71 -64 73 -82 1 -12 5
-22 9 -22 4 0 8 -6 8 -13 0 -11 37 -50 50 -53 3 0 13 -4 22 -8 21 -9 109 -3
188 13 30 6 66 13 80 15 14 3 25 5 25 6 0 1 9 3 20 4 22 3 77 13 115 22 57 13
80 8 80 -15 0 -35 28 -51 85 -51 65 0 80 13 89 75 9 54 31 60 78 20 39 -33 51
-32 98 11 49 45 57 67 34 102 -10 15 -19 40 -19 55 0 24 4 28 38 34 53 8 67
26 67 84 0 67 -11 85 -59 93 -37 6 -39 8 -36 38 1 18 8 47 16 65 11 28 11 34
-3 50 -17 19 -29 103 -15 103 4 0 5 5 1 12 -8 12 -12 80 -17 296 -2 73 -7 135
-10 138 -3 3 -2 17 3 30 6 15 6 24 0 24 -5 0 -7 6 -5 13 10 26 -33 72 -98 105
-36 19 -69 33 -73 32 -4 -1 -10 2 -13 7 -8 10 -174 93 -188 93 -6 0 -16 7 -23
15 -6 8 -15 14 -18 13 -21 -5 -83 38 -83 57 0 2 -13 32 -30 65 -74 149 -180
202 -290 144 -23 -11 -38 -13 -53 -6 -71 33 -78 34 -111 24z"/>
</g>
</svg>
